<svg width="41" height="40" viewBox="0 0 41 40" fill="none" xmlns="http://www.w3.org/2000/svg">
<path d="M22.9961 28.2126C22.8388 28.4851 22.7096 28.7478 22.6019 29.016C21.9945 30.5118 20.5741 34 16.3924 34C12.5779 34 11.3933 30.0531 11.3933 28.6154C11.3933 28.0198 11.8757 27.5385 12.4702 27.5385C13.0647 27.5385 13.5471 28.0198 13.5471 28.6154C13.5471 28.6477 13.8487 31.8461 16.3924 31.8461C18.6679 31.8461 19.691 30.4548 20.6064 28.2094C20.7507 27.8497 20.923 27.4975 21.1308 27.1357C21.427 26.6198 22.0882 26.4432 22.6019 26.7415C23.1177 27.0388 23.2944 27.6968 22.9961 28.2126ZM33.3474 32.6108C33.1374 32.8208 32.8617 32.9263 32.5861 32.9263C32.3104 32.9263 32.0347 32.8208 31.8247 32.6108L20.237 21.0231C20.237 21.0263 20.2381 21.0295 20.2391 21.0328L15.7699 16.5614C15.771 16.5603 15.7721 16.5592 15.7731 16.5582L8.15175 8.93785C7.73067 8.51677 7.73067 7.83615 8.15175 7.41508C8.57282 6.994 9.25344 6.994 9.67451 7.41508L13.0701 10.8106C14.329 7.98262 17.4122 6 20.867 6C25.1154 6 29.701 9.54415 29.701 15.2691C29.701 19.6435 28.0802 22.1754 26.3948 24.1354L33.3474 31.088C33.7674 31.5091 33.7674 32.1897 33.3474 32.6108ZM24.8688 22.6105C26.341 20.8777 27.5471 18.8606 27.5471 15.2691C27.5471 10.8742 24.0794 8.15385 20.867 8.15385C17.5371 8.15385 15.3025 10.3497 14.7684 12.5089L17.0665 14.8071C18.3093 11.1811 19.2613 10.3077 21.5401 10.3077C23.6433 10.3077 25.4008 11.8348 25.4008 14.7586C25.4008 15.2131 25.3599 15.6923 24.9733 15.6923C23.9857 15.6923 25.3265 12.4615 22.0785 12.4615C20.0108 12.4615 19.005 14.1868 19.3367 17.0772L24.8688 22.6105ZM14.6241 24.4315C14.6241 24.7643 14.6241 26.4701 16.7779 26.4701C18.0487 26.4701 19.3087 25.3415 19.9161 23.7552L16.7251 20.5643C16.7456 20.6505 16.7779 20.728 16.7779 20.8314C16.7779 22.8022 14.6241 22.2626 14.6241 24.4315Z" fill="#7D7D7D"/>
</svg>
