<svg width="41" height="40" viewBox="0 0 41 40" fill="none" xmlns="http://www.w3.org/2000/svg">
<path d="M10.1379 34.5C9.42537 34.5 8.77997 34.3784 8.20169 34.1354C7.62341 33.8821 7.15872 33.4972 6.80763 32.9807C6.45653 32.4641 6.27065 31.8158 6.25 31.0359H8.20169C8.21202 31.5525 8.3824 31.988 8.71285 32.3425C9.05362 32.6869 9.52863 32.8591 10.1379 32.8591C10.7162 32.8591 11.1602 32.7021 11.47 32.3881C11.7798 32.0741 11.9347 31.6791 11.9347 31.203C11.9347 30.6459 11.7282 30.2256 11.3151 29.942C10.9124 29.6482 10.3909 29.5014 9.75065 29.5014H8.94519V27.9061H9.76614C10.2928 27.9061 10.7317 27.7845 11.0828 27.5414C11.4339 27.2983 11.6094 26.9388 11.6094 26.4627C11.6094 26.0677 11.4752 25.7537 11.2067 25.5207C10.9485 25.2776 10.5871 25.1561 10.1224 25.1561C9.61641 25.1561 9.21884 25.3029 8.9297 25.5967C8.65089 25.8904 8.49599 26.25 8.46501 26.6754H6.52881C6.57012 25.6929 6.91605 24.918 7.56662 24.3508C8.22751 23.7836 9.07943 23.5 10.1224 23.5C10.8659 23.5 11.4906 23.6317 11.9966 23.895C12.513 24.1482 12.9002 24.4876 13.1584 24.913C13.4268 25.3384 13.5611 25.8094 13.5611 26.326C13.5611 26.9236 13.3907 27.43 13.0499 27.8453C12.7195 28.2505 12.3064 28.5239 11.8108 28.6657C12.42 28.7873 12.9157 29.081 13.2978 29.547C13.6798 30.0028 13.8709 30.5801 13.8709 31.279C13.8709 31.8665 13.7263 32.4033 13.4372 32.8895C13.148 33.3757 12.7247 33.7656 12.167 34.0594C11.6197 34.3531 10.9433 34.5 10.1379 34.5Z" fill="#7D7D7D"/>
<path d="M19.7988 34.5C18.7971 34.5 17.9401 34.2721 17.2275 33.8163C16.515 33.3504 15.9625 32.7072 15.5701 31.8867C15.1881 31.0562 14.997 30.0939 14.997 29C14.997 27.9162 15.1881 26.959 15.5701 26.1285C15.9625 25.2979 16.515 24.6547 17.2275 24.1989C17.9401 23.733 18.7971 23.5 19.7988 23.5C20.8005 23.5 21.6576 23.733 22.3701 24.1989C23.0826 24.6547 23.6299 25.2979 24.012 26.1285C24.4044 26.959 24.6006 27.9162 24.6006 29C24.6006 30.0939 24.4044 31.0562 24.012 31.8867C23.6299 32.7072 23.0826 33.3504 22.3701 33.8163C21.6576 34.2721 20.8005 34.5 19.7988 34.5ZM19.7988 32.7528C20.6146 32.7528 21.2806 32.4185 21.797 31.75C22.3133 31.0815 22.5714 30.1648 22.5714 29C22.5714 27.8352 22.3133 26.9185 21.797 26.25C21.2806 25.5815 20.6146 25.2472 19.7988 25.2472C18.9727 25.2472 18.3015 25.5815 17.7852 26.25C17.2792 26.9185 17.0262 27.8352 17.0262 29C17.0262 30.1648 17.2792 31.0815 17.7852 31.75C18.3015 32.4185 18.9727 32.7528 19.7988 32.7528Z" fill="#7D7D7D"/>
<path d="M30.8423 34.3177V32.3425H25.4984V30.7928L30.579 23.6823H32.825V30.6561H34.25V32.3425H32.825V34.3177H30.8423ZM27.6204 30.6561H30.9662V25.8246L27.6204 30.6561Z" fill="#7D7D7D"/>
<g clip-path="url(#clip0_2134_18470)">
<path fill-rule="evenodd" clip-rule="evenodd" d="M20.541 32.4968C23.8371 32.4244 26.8308 31.1252 29.0836 29.0378L28.5529 28.507C26.4363 30.4591 23.6301 31.6746 20.541 31.7466V32.4968ZM20.541 33.497C27.9442 33.3461 33.9362 27.4485 34.2381 20.0833H34.25V19.5C34.25 11.8653 28.1386 5.65789 20.541 5.50296V5.5H20.25H19.9577V5.50299C12.3606 5.6586 6.25 11.8657 6.25 19.5V20.0833H6.26193C6.40962 23.6867 7.91931 26.9388 10.2899 29.3385L10.2832 29.3452L10.6957 29.7577L10.7084 29.745C13.1425 32.013 16.3858 33.4239 19.9577 33.497V33.5H20.25H20.541V33.497ZM19.9577 32.4968V31.7466C16.869 31.6742 14.063 30.4587 11.9467 28.5066L11.416 29.0374C13.6685 31.1248 16.6619 32.4241 19.9577 32.4968ZM20.541 30.7463C23.354 30.6749 25.9103 29.5709 27.8451 27.7993L27.3143 27.2684C25.5158 28.9048 23.1469 29.9251 20.541 29.9961V30.7463ZM19.9577 29.996V30.7463C17.145 30.6745 14.589 29.5705 12.6545 27.7989L13.1853 27.268C14.9835 28.9043 17.3521 29.9248 19.9577 29.996ZM20.541 28.9956C22.8709 28.9255 24.9899 28.0165 26.6063 26.5604L26.0751 26.0293C24.5954 27.3504 22.6638 28.1759 20.541 28.2453V28.9956ZM19.9577 28.2452V28.9956C17.6281 28.9252 15.5095 28.0161 13.8933 26.5601L14.4244 26.0289C15.9039 27.3499 17.8352 28.1755 19.9577 28.2452ZM20.541 27.2446C22.3878 27.1765 24.0696 26.4621 25.3668 25.3209L24.8352 24.7894C23.6752 25.7958 22.1809 26.427 20.541 26.4941V27.2446ZM19.9577 26.494V27.2446C18.1112 27.1761 16.4298 26.4616 15.1328 25.3205L15.6644 24.789C16.8241 25.7954 18.3182 26.4267 19.9577 26.494ZM20.541 25.4931C21.9049 25.4279 23.1495 24.9074 24.126 24.0802L23.5936 23.5478C22.7553 24.241 21.698 24.6789 20.541 24.7421V25.4931ZM19.9577 24.742V25.493C18.5941 25.4276 17.3498 24.907 16.3736 24.0798L16.906 23.5474C17.744 24.2406 18.801 24.6785 19.9577 24.742ZM20.541 23.7402C21.4223 23.6806 22.2299 23.3524 22.8826 22.8367L22.3478 22.3019C21.836 22.6857 21.2156 22.9326 20.541 22.9881V23.7402ZM19.9577 22.988V23.7401C19.0767 23.6803 18.2694 23.352 17.617 22.8364L18.1518 22.3016C18.6633 22.6853 19.2834 22.9322 19.9577 22.988ZM20.541 21.9832C20.9405 21.9369 21.3112 21.7965 21.6305 21.5846L20.541 20.4952V21.9832ZM19.9577 20.4957V21.9831C19.5585 21.9366 19.1881 21.7961 18.8691 21.5843L19.9577 20.4957ZM20.541 19.0874L21.9559 17.6725C21.5759 17.3176 21.0851 17.0798 20.541 17.0168V19.0874ZM19.9577 17.0169V19.0869L18.5437 17.6729C18.9234 17.318 19.4139 17.0802 19.9577 17.0169ZM20.541 16.0119C21.3612 16.0794 22.1012 16.4297 22.6633 16.9651L23.1938 16.4346C22.4954 15.7638 21.5683 15.3293 20.541 15.2598V16.0119ZM19.9577 15.2599V16.012C19.1379 16.0798 18.3982 16.4302 17.8363 16.9655L17.3058 16.435C18.0039 15.7642 18.9308 15.3297 19.9577 15.2599ZM20.541 14.2579C21.8444 14.3291 23.0212 14.8758 23.901 15.7274L24.4314 15.197C23.4157 14.2098 22.0515 13.5791 20.541 13.5069V14.2579ZM19.9577 13.507V14.258C18.6546 14.3295 17.4781 14.8762 16.5986 15.7278L16.0682 15.1974C17.0837 14.2102 18.4475 13.5794 19.9577 13.507ZM20.541 12.5059C22.3277 12.579 23.9416 13.3217 25.1386 14.4898L25.6689 13.9595C24.3361 12.6557 22.5348 11.829 20.541 11.7554V12.5059ZM19.9577 11.7554V12.506C18.1714 12.5794 16.5577 13.3222 15.361 14.4902L14.8307 13.9598C16.1632 12.6562 17.9642 11.8293 19.9577 11.7554ZM20.541 10.7547C22.8109 10.8289 24.8622 11.7677 26.3761 13.2523L26.9065 12.722C25.2567 11.1016 23.018 10.0789 20.541 10.0044V10.7547ZM19.9577 10.0044V10.7548C17.6881 10.8293 15.6372 11.7681 14.1235 13.2527L13.5932 12.7223C15.2427 11.1021 17.481 10.0793 19.9577 10.0044ZM20.541 9.00396C23.2942 9.07887 25.7828 10.2136 27.6136 12.0148L28.1439 11.4845C26.1773 9.54754 23.5013 8.32886 20.541 8.25369V9.00396ZM19.9577 8.25372V9.00399C17.2048 9.07924 14.7166 10.214 12.886 12.0152L12.3557 11.4849C14.322 9.54798 16.9977 8.32922 19.9577 8.25372ZM20.541 7.25339C23.7774 7.32884 26.7034 8.65948 28.8511 10.7774L29.3814 10.247C27.098 7.99343 23.9845 6.57883 20.541 6.50319V7.25339ZM19.9577 6.50322V7.25342C16.7216 7.3292 13.7959 8.65992 11.6486 10.7777L11.1182 10.2474C13.4014 7.99387 16.5145 6.57919 19.9577 6.50322ZM33.2371 20.0833C33.0902 23.4107 31.6925 26.4131 29.5026 28.6318L28.9723 28.1014C31.0264 26.0186 32.3401 23.2036 32.4864 20.0833H33.2371ZM31.4851 20.0833C31.3399 22.9274 30.1383 25.4926 28.2651 27.3943L27.7348 26.864C29.4723 25.0981 30.5897 22.7203 30.7341 20.0833H31.4851ZM29.7324 20.0833C29.5894 22.4441 28.5842 24.5722 27.0277 26.1568L26.4973 25.6265C27.9182 24.1778 28.8391 22.237 28.9809 20.0833H29.7324ZM27.9784 20.0833C27.8387 21.9608 27.0301 23.6519 25.7902 24.9193L25.2598 24.389C26.364 23.2576 27.0882 21.7536 27.226 20.0833H27.9784ZM26.222 20.0833C26.0875 21.4774 25.476 22.7319 24.5526 23.6818L24.0222 23.1514C24.8099 22.3378 25.3368 21.2702 25.468 20.0833H26.222ZM24.4603 20.0833C24.3353 20.994 23.9218 21.8126 23.315 22.4442L22.7845 21.9137C23.2557 21.4191 23.5836 20.7868 23.7016 20.0833H24.4603ZM22.6816 20.0833C22.5794 20.5108 22.3674 20.8956 22.0771 21.2063L20.9542 20.0833H22.6816ZM19.5459 19.5L18.1654 18.1195C17.9029 18.5151 17.75 18.9897 17.75 19.5H19.5459ZM17.4481 17.4022L16.9133 16.8674C16.3414 17.5913 16 18.5058 16 19.5L16.75 19.5C16.75 18.7131 17.0097 17.9868 17.4481 17.4022ZM16.2022 16.1564L15.6698 15.624C14.7841 16.6695 14.25 18.0224 14.25 19.5V19.5L15 19.5C15 18.2296 15.4513 17.0645 16.2022 16.1564ZM14.9606 14.9148L14.4291 14.3832C13.2283 15.7483 12.5 17.5391 12.5 19.5L13.25 19.5V19.5C13.25 17.7462 13.895 16.143 14.9606 14.9148ZM13.7207 13.6748L13.1896 13.1437C11.6731 14.8272 10.75 17.0558 10.75 19.5L11.5 19.5C11.5 17.2629 12.3395 15.2219 13.7207 13.6748ZM12.4816 12.4357L11.9507 11.9049C10.1182 13.9062 9 16.5725 9 19.5L9.75 19.5C9.75 16.7796 10.7845 14.3009 12.4816 12.4357ZM11.243 11.1971L10.7122 10.6664C8.5635 12.9853 7.25 16.0893 7.25 19.5L8 19.5C8 16.2964 9.22977 13.38 11.243 11.1971ZM10.997 28.6314L11.5274 28.1011C9.47343 26.0183 8.15992 23.2034 8.01364 20.0833H7.26285C7.40978 23.4106 8.80738 26.4128 10.997 28.6314ZM12.7648 26.8636L12.2345 27.3939C10.3615 25.4923 9.16013 22.9272 9.01486 20.0833H9.76593C9.91031 22.7201 11.0275 25.0978 12.7648 26.8636ZM14.0023 25.6261L13.472 26.1565C11.9156 24.5719 10.9106 22.4439 10.7676 20.0833H11.5191C11.6609 22.2368 12.5817 24.1774 14.0023 25.6261ZM15.2398 24.3886L14.7095 24.919C13.4697 23.6516 12.6613 21.9606 12.5216 20.0833H13.274C13.4117 21.7534 14.1358 23.2573 15.2398 24.3886ZM16.4774 23.151L15.947 23.6814C15.0239 22.7316 14.4125 21.4772 14.278 20.0833H15.032C15.1632 21.27 15.6899 22.3375 16.4774 23.151ZM17.7151 21.9133L17.1846 22.4438C16.578 21.8123 16.1647 20.9938 16.0397 20.0833H16.7984C16.9164 20.7866 17.2441 21.4188 17.7151 21.9133ZM19.5451 20.0833L18.4225 21.2059C18.1324 20.8953 17.9205 20.5106 17.8184 20.0833H19.5451ZM20.9534 19.5H22.75C22.75 18.9895 22.597 18.5147 22.3343 18.1191L20.9534 19.5ZM23.0516 17.4018C23.4902 17.9864 23.75 18.7129 23.75 19.5L24.5 19.5C24.5 18.5056 24.1585 17.591 23.5864 16.867L23.0516 17.4018ZM24.2974 16.156C25.0486 17.0641 25.5 18.2294 25.5 19.5L26.25 19.5C26.25 18.0222 25.7157 16.6692 24.8298 15.6236L24.2974 16.156ZM25.539 14.9144C26.6049 16.1427 27.25 17.746 27.25 19.5L28 19.5C28 17.5389 27.2716 15.7479 26.0705 14.3828L25.539 14.9144ZM26.7789 13.6744C28.1603 15.2216 29 17.2627 29 19.5L29.75 19.5C29.75 17.0556 28.8268 14.8268 27.31 13.1433L26.7789 13.6744ZM28.018 12.4353C29.7153 14.3006 30.75 16.7794 30.75 19.5L31.5 19.5C31.5 16.5723 30.3817 13.9059 28.5489 11.9045L28.018 12.4353ZM29.2566 11.1967C31.2701 13.3796 32.5 16.2962 32.5 19.5L33.25 19.5C33.25 16.0891 31.9364 12.985 29.7874 10.666L29.2566 11.1967Z" fill="#7D7D7D"/>
</g>
<defs>
<clipPath id="clip0_2134_18470">
<rect width="28" height="14" fill="white" transform="translate(6.25 5.5)"/>
</clipPath>
</defs>
</svg>
