<svg width="41" height="40" viewBox="0 0 41 40" fill="none" xmlns="http://www.w3.org/2000/svg">
<path d="M7.73464 14.8483V7.84551L6.25 8.1868V6.94803L8.43178 6H9.45167V14.8483H7.73464Z" fill="#7D7D7D"/>
<path d="M11.4879 14.9368C11.1867 14.9368 10.9371 14.8441 10.7391 14.6587C10.5498 14.4733 10.4551 14.25 10.4551 13.9888C10.4551 13.7191 10.5498 13.4916 10.7391 13.3062C10.9371 13.1208 11.1867 13.0281 11.4879 13.0281C11.7891 13.0281 12.0344 13.1208 12.2238 13.3062C12.4217 13.4916 12.5207 13.7191 12.5207 13.9888C12.5207 14.25 12.4217 14.4733 12.2238 14.6587C12.0344 14.8441 11.7891 14.9368 11.4879 14.9368Z" fill="#7D7D7D"/>
<path d="M16.7711 15C16.1084 15 15.5361 14.8862 15.0541 14.6587C14.5807 14.4312 14.2063 14.1194 13.9309 13.7233C13.6641 13.3188 13.5092 12.8638 13.4662 12.3581H15.0799C15.1574 12.7205 15.3467 13.0239 15.6479 13.2683C15.9492 13.5042 16.3236 13.6222 16.7711 13.6222C17.2531 13.6222 17.6447 13.4494 17.9459 13.1039C18.2557 12.7584 18.4107 12.3287 18.4107 11.8146C18.4107 11.2837 18.2557 10.8624 17.9459 10.5506C17.6447 10.2388 17.2617 10.0829 16.7969 10.0829C16.4096 10.0829 16.074 10.1756 15.7899 10.361C15.5059 10.5463 15.3037 10.7781 15.1832 11.0562H13.5953L14.3699 6H19.3789V7.41573H15.6092L15.1961 9.46348C15.3854 9.26124 15.6436 9.09691 15.9707 8.97051C16.2977 8.83567 16.6635 8.76826 17.068 8.76826C17.7135 8.76826 18.2514 8.91152 18.6818 9.19803C19.1121 9.47612 19.4392 9.84691 19.6629 10.3104C19.8867 10.7654 19.9986 11.2626 19.9986 11.802C19.9986 12.4171 19.8609 12.9649 19.5855 13.4452C19.3187 13.9256 18.94 14.3048 18.4494 14.5829C17.9674 14.861 17.408 15 16.7711 15Z" fill="#7D7D7D"/>
<path d="M20.8381 14.8483V10.8585H21.4624L21.5117 11.4377C21.6432 11.2232 21.8184 11.0569 22.0375 10.939C22.2566 10.821 22.5031 10.762 22.7769 10.762C23.1001 10.762 23.3766 10.8264 23.6067 10.9551C23.8422 11.0838 24.0229 11.2795 24.1489 11.5423C24.2913 11.3009 24.4857 11.1106 24.7322 10.9711C24.9841 10.8317 25.2552 10.762 25.5455 10.762C26.033 10.762 26.4218 10.9068 26.7121 11.1964C27.0024 11.4806 27.1475 11.9203 27.1475 12.5156V14.8483H26.4656V12.588C26.4656 12.1751 26.3807 11.864 26.211 11.6549C26.0412 11.4457 25.7975 11.3412 25.4798 11.3412C25.1512 11.3412 24.8773 11.4672 24.6582 11.7192C24.4446 11.9659 24.3378 12.3198 24.3378 12.781V14.8483H23.6477V12.588C23.6477 12.1751 23.5629 11.864 23.3931 11.6549C23.2233 11.4457 22.9796 11.3412 22.6619 11.3412C22.3388 11.3412 22.0676 11.4672 21.8486 11.7192C21.635 11.9659 21.5282 12.3198 21.5282 12.781V14.8483H20.8381Z" fill="#7D7D7D"/>
<path d="M27.9406 14.8483V10.8585H28.5649L28.6142 11.4377C28.7457 11.2232 28.9209 11.0569 29.14 10.939C29.3591 10.821 29.6056 10.762 29.8794 10.762C30.2025 10.762 30.4791 10.8264 30.7092 10.9551C30.9447 11.0838 31.1254 11.2795 31.2514 11.5423C31.3938 11.3009 31.5882 11.1106 31.8347 10.9711C32.0866 10.8317 32.3577 10.762 32.648 10.762C33.1354 10.762 33.5243 10.9068 33.8146 11.1964C34.1049 11.4806 34.25 11.9203 34.25 12.5156V14.8483H33.5681V12.588C33.5681 12.1751 33.4832 11.864 33.3134 11.6549C33.1437 11.4457 32.8999 11.3412 32.5823 11.3412C32.2537 11.3412 31.9798 11.4672 31.7607 11.7192C31.5471 11.9659 31.4403 12.3198 31.4403 12.781V14.8483H30.7502V12.588C30.7502 12.1751 30.6653 11.864 30.4956 11.6549C30.3258 11.4457 30.082 11.3412 29.7644 11.3412C29.4412 11.3412 29.1701 11.4672 28.9511 11.7192C28.7375 11.9659 28.6307 12.3198 28.6307 12.781V14.8483H27.9406Z" fill="#7D7D7D"/>
<path d="M34.25 24.5H6.25V27.5H34.25V24.5Z" fill="#7D7D7D"/>
<path d="M34.25 29.5H6.25V34H34.25V29.5Z" fill="#7D7D7D"/>
<path d="M34.25 18.5H6.25V19H34.25V18.5Z" fill="#7D7D7D"/>
<path d="M34.25 21H6.25V22.5H34.25V21Z" fill="#7D7D7D"/>
</svg>
