<svg width="41" height="40" viewBox="0 0 41 40" fill="none" xmlns="http://www.w3.org/2000/svg">
<path d="M17.4959 12.5888L15.9361 11.0315C17.801 8.66815 19.3621 6.96494 19.4426 6.87735L20.249 6L21.0557 6.87735C21.155 6.98566 23.517 9.56238 25.9183 12.8035C29.2387 17.2848 30.9222 20.7325 30.9222 23.0512V23.3441C30.9222 24.1622 30.8291 24.9593 30.6534 25.7251L28.7209 23.7954C28.7286 23.6459 28.7328 23.4955 28.7328 23.3441V23.0512C28.7328 21.2651 27.112 18.0926 24.1691 14.1183C22.6649 12.0865 21.1451 10.2898 20.249 9.26266C19.5864 10.0223 18.5824 11.2032 17.4959 12.5888ZM32.7019 33.9872L28.6348 29.9266C26.679 32.4051 23.6475 34 20.249 34C14.3641 34 9.57591 29.2198 9.57591 23.3441V23.0512C9.57591 21.0547 10.8257 18.2199 13.293 14.6094L6.25 7.57782L7.79805 6.03226L34.25 32.4416L32.7019 33.9872ZM27.0744 28.3687L14.8703 16.1843C12.856 19.1899 11.7652 21.5868 11.7652 23.0512V23.3441C11.7652 28.0145 15.5711 31.8142 20.249 31.8142C23.0445 31.8142 25.5278 30.4571 27.0744 28.3687Z" fill="#7D7D7D"/>
</svg>
