<svg width="41" height="40" viewBox="0 0 41 40" fill="none" xmlns="http://www.w3.org/2000/svg">
<path d="M27.3125 10.9219H14.1875C13.7345 10.9219 13.3672 11.2892 13.3672 11.7422V18.4141C13.3672 18.8671 13.7345 19.2344 14.1875 19.2344H27.3125C27.7655 19.2344 28.1328 18.8671 28.1328 18.4141V11.7422C28.1328 11.2892 27.7655 10.9219 27.3125 10.9219ZM26.4922 17.5937H15.0078V12.5625H26.4922V17.5937Z" fill="#7D7D7D"/>
<path d="M15.8281 20.875C15.3751 20.875 15.0078 21.2423 15.0078 21.6953V24.9766C15.0078 25.4296 15.3751 25.7969 15.8281 25.7969C16.2812 25.7969 16.6484 25.4296 16.6484 24.9766V21.6953C16.6484 21.2423 16.2812 20.875 15.8281 20.875Z" fill="#7D7D7D"/>
<path d="M20.75 20.875C20.297 20.875 19.9297 21.2423 19.9297 21.6953V24.9766C19.9297 25.4296 20.297 25.7969 20.75 25.7969C21.203 25.7969 21.5703 25.4296 21.5703 24.9766V21.6953C21.5703 21.2423 21.203 20.875 20.75 20.875Z" fill="#7D7D7D"/>
<path d="M25.6719 20.875C25.2188 20.875 24.8516 21.2423 24.8516 21.6953V24.9766C24.8516 25.4296 25.2188 25.7969 25.6719 25.7969C26.1249 25.7969 26.4922 25.4296 26.4922 24.9766V21.6953C26.4922 21.2423 26.1249 20.875 25.6719 20.875Z" fill="#7D7D7D"/>
<path d="M32.2344 14.3125H31.4141V8.46094C31.4141 8.11827 31.2011 7.81169 30.8799 7.69214C30.6943 7.62307 26.2708 6 20.75 6C15.2292 6 10.8057 7.62307 10.6201 7.69214C10.2989 7.81169 10.0859 8.11827 10.0859 8.46094V14.3125H9.26562C8.81259 14.3125 8.44531 14.6798 8.44531 15.1328C8.44531 15.5858 8.81259 15.9531 9.26562 15.9531H10.0859V23.3359C10.0859 29.2161 14.8698 34 20.75 34C26.6302 34 31.4141 29.2161 31.4141 23.3359V15.9531H32.2344C32.6874 15.9531 33.0547 15.5858 33.0547 15.1328C33.0547 14.6798 32.6874 14.3125 32.2344 14.3125ZM29.7734 23.3359C29.7734 28.3115 25.7255 32.3594 20.75 32.3594C15.7745 32.3594 11.7266 28.3115 11.7266 23.3359V9.05069C13.0372 8.63501 16.6059 7.64062 20.75 7.64062C24.8941 7.64062 28.4628 8.63501 29.7734 9.05069V23.3359Z" fill="#7D7D7D"/>
</svg>
